<svg width="657.9px" height="122px" xmlns="http://www.w3.org/2000/svg" viewBox="-78.94687499999998 14 657.89375 122" style="background: rgba(0, 0, 0, 0)" preserveAspectRatio="xMidYMid"><defs><linearGradient id="editing-gradow-gradient" x1="0" x2="1" y1="0.5" y2="0.5" gradientUnits="objectBoundingBox"><stop offset="0" stop-color="#64ff00"></stop><stop offset="1" stop-color="#0076ff"></stop></linearGradient><filter id="editing-gradow-filter" x="-100%" y="-100%" width="300%" height="300%"><feFlood flood-color="#b1b0a1" result="flood"></feFlood><feComposite operator="in" in2="SourceAlpha" in="flood" result="shadow"></feComposite><feOffset dx="-0.3" dy="-2.5" in="SourceGraphic" result="offset-1"></feOffset><feOffset dx="0.3" dy="2.5" in="shadow" result="offset-2"></feOffset><feMerge><feMergeNode in="offset-2"></feMergeNode><feMergeNode in="offset-1"></feMergeNode></feMerge></filter></defs><g filter="url(#editing-gradow-filter)"><g transform="matrix(1.3,0,0,1.6,-36.9,177.2)"><path d="M 5.1 -43.1 L -8.9 -43.1 L -0.7 -85.4 L 13.3 -85.4 L 5.1 -43.1 Z M 60.8 -41.9 L 60.8 -41.9 L 60.8 -41.9 Q 53.1 -41.9 53.1 -47.9 L 53.1 -47.9 L 53.1 -47.9 Q 53.1 -50.5 54.2 -55.6 L 54.2 -55.6 L 54.2 -55.6 Q 55.3 -60.7 55.7 -62.7 L 55.7 -62.7 L 55.7 -62.7 Q 56.6 -67.4 56.6 -68.9 L 56.6 -68.9 L 56.6 -68.9 Q 56.6 -72.1 54.2 -72.1 L 54.2 -72.1 L 54.2 -72.1 Q 52.6 -72.1 51 -69.9 L 51 -69.9 L 51 -69.9 Q 49.5 -67.7 48.8 -63.3 L 48.8 -63.3 L 44.8 -43.1 L 32.3 -41.9 L 35.8 -59.3 L 35.8 -59.3 Q 36.4 -62.2 36.9 -65.4 L 36.9 -65.4 L 36.9 -65.4 Q 37.4 -68.7 37.4 -69.2 L 37.4 -69.2 L 37.4 -69.2 Q 37.4 -72.1 35.2 -72.1 L 35.2 -72.1 L 35.2 -72.1 Q 33.8 -72.1 32.2 -70 L 32.2 -70 L 32.2 -70 Q 30.6 -67.8 29.7 -63.3 L 29.7 -63.3 L 25.8 -43.1 L 13.1 -41.9 L 19.9 -75.8 L 30.3 -77.1 L 29.2 -70.6 L 29.2 -70.6 Q 30.9 -74.1 33.9 -75.6 L 33.9 -75.6 L 33.9 -75.6 Q 37 -77.1 41.8 -77.1 L 41.8 -77.1 L 41.8 -77.1 Q 44.6 -77.1 46.4 -75.7 L 46.4 -75.7 L 46.4 -75.7 Q 48.2 -74.4 48.7 -72.2 L 48.7 -72.2 L 48.7 -72.2 Q 49.8 -74.4 52.6 -75.8 L 52.6 -75.8 L 52.6 -75.8 Q 55.4 -77.1 58.8 -77.1 L 58.8 -77.1 L 58.8 -77.1 Q 62.2 -77.1 63.9 -76.3 L 63.9 -76.3 L 63.9 -76.3 Q 65.6 -75.6 66.6 -74.4 L 66.6 -74.4 L 66.6 -74.4 Q 68.4 -72.1 68.4 -68 L 68.4 -68 L 68.4 -68 Q 68.4 -64 66.6 -55.6 L 66.6 -55.6 L 66.6 -55.6 Q 65.8 -51.5 65.8 -50 L 65.8 -50 L 65.8 -50 Q 65.8 -48.5 66.6 -47.6 L 66.6 -47.6 L 66.6 -47.6 Q 67.5 -46.7 68.8 -46.6 L 68.8 -46.6 L 68.8 -46.6 Q 68.1 -44.4 65.9 -43.1 L 65.9 -43.1 L 65.9 -43.1 Q 63.7 -41.9 60.8 -41.9 Z M 76.5 -45.1 L 76.5 -45.1 L 76.5 -45.1 Q 75 -46.7 74.3 -49.4 L 74.3 -49.4 L 74.3 -49.4 Q 73.6 -52 73.6 -56.3 L 73.6 -56.3 L 73.6 -56.3 Q 73.6 -60.6 75.1 -64.5 L 75.1 -64.5 L 75.1 -64.5 Q 76.6 -68.4 79.3 -71.2 L 79.3 -71.2 L 79.3 -71.2 Q 84.8 -77.1 93.8 -77.1 L 93.8 -77.1 L 93.8 -77.1 Q 97.1 -77.1 99.5 -76 L 99.5 -76 L 110.4 -77.1 L 105.7 -52.1 L 105.7 -52.1 Q 105.5 -51.3 105.5 -49.9 L 105.5 -49.9 L 105.5 -49.9 Q 105.5 -48.5 106.4 -47.6 L 106.4 -47.6 L 106.4 -47.6 Q 107.2 -46.7 108.5 -46.6 L 108.5 -46.6 L 108.5 -46.6 Q 107.9 -44.4 105.5 -43.1 L 105.5 -43.1 L 105.5 -43.1 Q 103.2 -41.9 100.6 -41.9 L 100.6 -41.9 L 100.6 -41.9 Q 97.9 -41.9 96.2 -42.9 L 96.2 -42.9 L 96.2 -42.9 Q 94.4 -43.8 93.9 -45.5 L 93.9 -45.5 L 93.9 -45.5 Q 92.9 -43.9 90.7 -42.9 L 90.7 -42.9 L 90.7 -42.9 Q 88.5 -41.9 85.6 -41.9 L 85.6 -41.9 L 85.6 -41.9 Q 82.7 -41.9 80.3 -42.6 L 80.3 -42.6 L 80.3 -42.6 Q 78 -43.4 76.5 -45.1 Z M 90 -71 L 90 -71 L 90 -71 Q 89.2 -69.9 88.6 -67.9 L 88.6 -67.9 L 88.6 -67.9 Q 88 -66 86.9 -60.8 L 86.9 -60.8 L 86.9 -60.8 Q 85.8 -55.6 85.8 -51.8 L 85.8 -51.8 L 85.8 -51.8 Q 85.8 -48.1 86.4 -47 L 86.4 -47 L 86.4 -47 Q 87 -46 88 -46 L 88 -46 L 88 -46 Q 90.1 -46 91.6 -47.9 L 91.6 -47.9 L 91.6 -47.9 Q 93.1 -49.9 93.7 -53.3 L 93.7 -53.3 L 97 -72.1 L 97 -72.1 Q 95.7 -73.2 94.1 -73.2 L 94.1 -73.2 L 94.1 -73.2 Q 92.6 -73.2 91.6 -72.7 L 91.6 -72.7 L 91.6 -72.7 Q 90.7 -72.2 90 -71 Z M 118.2 -69.9 L 118.2 -69.9 L 118.2 -69.9 Q 120.3 -73 123.6 -75 L 123.6 -75 L 123.6 -75 Q 126.9 -77.1 131 -77.1 L 131 -77.1 L 131 -77.1 Q 135 -77.1 136.9 -75.8 L 136.9 -75.8 L 149.5 -77.1 L 145.1 -52.5 L 145.1 -52.5 Q 142.9 -39.9 138.1 -35 L 138.1 -35 L 138.1 -35 Q 133.6 -30.3 124.8 -30.3 L 124.8 -30.3 L 124.8 -30.3 Q 118 -30.3 114.2 -32.5 L 114.2 -32.5 L 114.2 -32.5 Q 110.4 -34.6 110.4 -38.1 L 110.4 -38.1 L 110.4 -38.1 Q 110.4 -40.7 112.3 -42.2 L 112.3 -42.2 L 112.3 -42.2 Q 114.3 -43.7 117.4 -43.7 L 117.4 -43.7 L 117.4 -43.7 Q 120.1 -43.7 122.1 -42.5 L 122.1 -42.5 L 122.1 -42.5 Q 123.4 -41.9 123.9 -41 L 123.9 -41 L 123.9 -41 Q 122.5 -39.7 122.5 -37.6 L 122.5 -37.6 L 122.5 -37.6 Q 122.5 -34.8 125 -34.8 L 125 -34.8 L 125 -34.8 Q 129.3 -34.8 131.7 -44.9 L 131.7 -44.9 L 131.7 -44.9 Q 132.4 -47.7 133 -50.4 L 133 -50.4 L 133 -50.4 Q 130.1 -46.9 123.6 -46.9 L 123.6 -46.9 L 123.6 -46.9 Q 119.1 -46.9 116.4 -49.1 L 116.4 -49.1 L 116.4 -49.1 Q 113.8 -51.3 113.8 -56.4 L 113.8 -56.4 L 113.8 -56.4 Q 113.8 -59.6 114.9 -63.2 L 114.9 -63.2 L 114.9 -63.2 Q 116 -66.8 118.2 -69.9 Z M 126.5 -56.2 L 126.5 -56.2 L 126.5 -56.2 Q 126.5 -51.8 128.7 -51.8 L 128.7 -51.8 L 128.7 -51.8 Q 130.3 -51.8 131.7 -53.5 L 131.7 -53.5 L 131.7 -53.5 Q 132.9 -54.9 133.3 -56.8 L 133.3 -56.8 L 136.6 -73.3 L 136.6 -73.3 Q 136.3 -73.4 136 -73.5 L 136 -73.5 L 136 -73.5 Q 135.3 -73.7 134.5 -73.7 L 134.5 -73.7 L 134.5 -73.7 Q 130.6 -73.7 128.3 -67.3 L 128.3 -67.3 L 128.3 -67.3 Q 126.5 -62.3 126.5 -56.2 Z M 177.9 -54 L 177.9 -54 L 177.9 -54 Q 179.5 -52.9 179.5 -50.5 L 179.5 -50.5 L 179.5 -50.5 Q 179.5 -48.1 178.3 -46.5 L 178.3 -46.5 L 178.3 -46.5 Q 177 -45 175.1 -44 L 175.1 -44 L 175.1 -44 Q 171 -41.9 166.6 -41.9 L 166.6 -41.9 L 166.6 -41.9 Q 162.1 -41.9 159.5 -42.8 L 159.5 -42.8 L 159.5 -42.8 Q 157 -43.8 155.2 -45.6 L 155.2 -45.6 L 155.2 -45.6 Q 151.8 -49 151.8 -55.2 L 151.8 -55.2 L 151.8 -55.2 Q 151.8 -64.8 157.1 -70.7 L 157.1 -70.7 L 157.1 -70.7 Q 162.7 -77.1 172.5 -77.1 L 172.5 -77.1 L 172.5 -77.1 Q 178.6 -77.1 181.6 -74.5 L 181.6 -74.5 L 181.6 -74.5 Q 183.8 -72.6 183.8 -69.4 L 183.8 -69.4 L 183.8 -69.4 Q 183.8 -58.2 164.4 -58.2 L 164.4 -58.2 L 164.4 -58.2 Q 164.1 -56.5 164.1 -55.1 L 164.1 -55.1 L 164.1 -55.1 Q 164.1 -52.2 165.4 -51 L 165.4 -51 L 165.4 -51 Q 166.7 -49.9 169.2 -49.9 L 169.2 -49.9 L 169.2 -49.9 Q 171.6 -49.9 174.2 -51 L 174.2 -51 L 174.2 -51 Q 176.8 -52.2 177.9 -54 Z M 164.8 -60.9 L 164.8 -60.9 L 164.8 -60.9 Q 169.4 -60.9 172 -63.8 L 172 -63.8 L 172 -63.8 Q 174.6 -66.4 174.6 -70.7 L 174.6 -70.7 L 174.6 -70.7 Q 174.6 -72.2 174.1 -73 L 174.1 -73 L 174.1 -73 Q 173.5 -73.8 172.4 -73.8 L 172.4 -73.8 L 172.4 -73.8 Q 171.4 -73.8 170.4 -73.4 L 170.4 -73.4 L 170.4 -73.4 Q 169.5 -73 168.5 -71.6 L 168.5 -71.6 L 168.5 -71.6 Q 166.2 -68.4 164.8 -60.9 Z M 205.1 -65.6 L 205.1 -65.6 L 205.1 -65.6 Q 206 -68 206 -70 L 206 -70 L 206 -70 Q 206 -73.8 203 -73.8 L 203 -73.8 L 203 -73.8 Q 201.4 -73.8 200.1 -72.4 L 200.1 -72.4 L 200.1 -72.4 Q 198.7 -70.9 198.7 -69.1 L 198.7 -69.1 L 198.7 -69.1 Q 198.7 -67.8 199.8 -66.8 L 199.8 -66.8 L 199.8 -66.8 Q 201.2 -65.4 205 -63.1 L 205 -63.1 L 205 -63.1 Q 208.8 -60.8 210.2 -58.9 L 210.2 -58.9 L 210.2 -58.9 Q 211.7 -57 211.7 -54.4 L 211.7 -54.4 L 211.7 -54.4 Q 211.7 -51.8 210.4 -49.5 L 210.4 -49.5 L 210.4 -49.5 Q 209.2 -47.1 206.9 -45.4 L 206.9 -45.4 L 206.9 -45.4 Q 202.1 -41.9 194.5 -41.9 L 194.5 -41.9 L 194.5 -41.9 Q 190.3 -41.9 187.1 -44 L 187.1 -44 L 187.1 -44 Q 183.9 -46.2 183.9 -48.6 L 183.9 -48.6 L 183.9 -48.6 Q 183.9 -51.1 185.7 -52.6 L 185.7 -52.6 L 185.7 -52.6 Q 187.5 -54.1 190.2 -54.1 L 190.2 -54.1 L 190.2 -54.1 Q 192.9 -54.1 194.6 -53.1 L 194.6 -53.1 L 194.6 -53.1 Q 193.8 -51 193.8 -49.5 L 193.8 -49.5 L 193.8 -49.5 Q 193.8 -45.3 197.3 -45.3 L 197.3 -45.3 L 197.3 -45.3 Q 198.9 -45.3 199.9 -46.3 L 199.9 -46.3 L 199.9 -46.3 Q 200.9 -47.2 200.9 -48.9 L 200.9 -48.9 L 200.9 -48.9 Q 200.9 -52.2 195.4 -55.6 L 195.4 -55.6 L 195.4 -55.6 Q 190.9 -58.6 189.9 -59.7 L 189.9 -59.7 L 189.9 -59.7 Q 188.2 -61.8 188.2 -64.3 L 188.2 -64.3 L 188.2 -64.3 Q 188.2 -66.9 189.4 -69.3 L 189.4 -69.3 L 189.4 -69.3 Q 190.6 -71.8 192.9 -73.5 L 192.9 -73.5 L 192.9 -73.5 Q 197.5 -77.1 205.7 -77.1 L 205.7 -77.1 L 205.7 -77.1 Q 209.8 -77.1 212.3 -75.4 L 212.3 -75.4 L 212.3 -75.4 Q 214.7 -73.7 214.7 -70.9 L 214.7 -70.9 L 214.7 -70.9 Q 214.7 -68.1 213 -66.5 L 213 -66.5 L 213 -66.5 Q 211.4 -64.9 208.3 -64.9 L 208.3 -64.9 L 208.3 -64.9 Q 206.2 -64.9 205.1 -65.6 Z M 256.2 -63.8 L 269.1 -64.9 L 269.1 -64.9 Q 264.5 -54.8 264.5 -43.1 L 264.5 -43.1 L 264.5 -43.1 Q 262.8 -41.9 260.3 -41.9 L 260.3 -41.9 L 260.3 -41.9 Q 257.8 -41.9 256.2 -43 L 256.2 -43 L 256.2 -43 Q 254.6 -44.2 254.2 -45.4 L 254.2 -45.4 L 254.2 -45.4 Q 252.6 -43.8 250 -42.8 L 250 -42.8 L 250 -42.8 Q 247.4 -41.9 244.7 -41.9 L 244.7 -41.9 L 244.7 -41.9 Q 241.9 -41.9 239.5 -42.8 L 239.5 -42.8 L 239.5 -42.8 Q 237.1 -43.7 235.3 -45.6 L 235.3 -45.6 L 235.3 -45.6 Q 231.2 -50 231.2 -58.2 L 231.2 -58.2 L 231.2 -58.2 Q 231.2 -71 238 -78.7 L 238 -78.7 L 238 -78.7 Q 245.1 -86.7 257.6 -86.7 L 257.6 -86.7 L 257.6 -86.7 Q 266.2 -86.7 269.3 -82.2 L 269.3 -82.2 L 269.3 -82.2 Q 270.2 -80.8 270.2 -79.1 L 270.2 -79.1 L 270.2 -79.1 Q 270.2 -77.4 269.5 -75.9 L 269.5 -75.9 L 269.5 -75.9 Q 268.8 -74.5 267.6 -73.4 L 267.6 -73.4 L 267.6 -73.4 Q 264.9 -70.8 261.5 -70.8 L 261.5 -70.8 L 261.5 -70.8 Q 260.1 -70.8 258.8 -71.2 L 258.8 -71.2 L 258.8 -71.2 Q 259.1 -73.2 259.1 -75.4 L 259.1 -75.4 L 259.1 -75.4 Q 259.1 -77.6 258.9 -78.7 L 258.9 -78.7 L 258.9 -78.7 Q 258.8 -79.7 258.4 -80.5 L 258.4 -80.5 L 258.4 -80.5 Q 257.6 -82.2 255.7 -82.2 L 255.7 -82.2 L 255.7 -82.2 Q 253.9 -82.2 251.9 -80.3 L 251.9 -80.3 L 251.9 -80.3 Q 249.9 -78.3 248.3 -75.1 L 248.3 -75.1 L 248.3 -75.1 Q 244.8 -68 244.8 -59.3 L 244.8 -59.3 L 244.8 -59.3 Q 244.8 -55.4 246.3 -52.6 L 246.3 -52.6 L 246.3 -52.6 Q 248 -49.5 250.9 -49.5 L 250.9 -49.5 L 250.9 -49.5 Q 251.9 -49.5 252.9 -50 L 252.9 -50 L 252.9 -50 Q 253.8 -50.5 254.2 -50.9 L 254.2 -50.9 L 256.2 -63.8 Z M 275.1 -45.1 L 275.1 -45.1 L 275.1 -45.1 Q 273.6 -46.7 272.9 -49.4 L 272.9 -49.4 L 272.9 -49.4 Q 272.2 -52 272.2 -56.3 L 272.2 -56.3 L 272.2 -56.3 Q 272.2 -60.6 273.7 -64.5 L 273.7 -64.5 L 273.7 -64.5 Q 275.2 -68.4 277.8 -71.2 L 277.8 -71.2 L 277.8 -71.2 Q 283.4 -77.1 292.4 -77.1 L 292.4 -77.1 L 292.4 -77.1 Q 295.7 -77.1 298.1 -76 L 298.1 -76 L 309 -77.1 L 304.3 -52.1 L 304.3 -52.1 Q 304.1 -51.3 304.1 -49.9 L 304.1 -49.9 L 304.1 -49.9 Q 304.1 -48.5 305 -47.6 L 305 -47.6 L 305 -47.6 Q 305.8 -46.7 307.1 -46.6 L 307.1 -46.6 L 307.1 -46.6 Q 306.5 -44.4 304.1 -43.1 L 304.1 -43.1 L 304.1 -43.1 Q 301.8 -41.9 299.2 -41.9 L 299.2 -41.9 L 299.2 -41.9 Q 296.5 -41.9 294.8 -42.9 L 294.8 -42.9 L 294.8 -42.9 Q 293 -43.8 292.5 -45.5 L 292.5 -45.5 L 292.5 -45.5 Q 291.5 -43.9 289.3 -42.9 L 289.3 -42.9 L 289.3 -42.9 Q 287.1 -41.9 284.2 -41.9 L 284.2 -41.9 L 284.2 -41.9 Q 281.3 -41.9 278.9 -42.6 L 278.9 -42.6 L 278.9 -42.6 Q 276.6 -43.4 275.1 -45.1 Z M 288.6 -71 L 288.6 -71 L 288.6 -71 Q 287.8 -69.9 287.2 -67.9 L 287.2 -67.9 L 287.2 -67.9 Q 286.6 -66 285.5 -60.8 L 285.5 -60.8 L 285.5 -60.8 Q 284.4 -55.6 284.4 -51.8 L 284.4 -51.8 L 284.4 -51.8 Q 284.4 -48.1 285 -47 L 285 -47 L 285 -47 Q 285.6 -46 286.6 -46 L 286.6 -46 L 286.6 -46 Q 288.7 -46 290.2 -47.9 L 290.2 -47.9 L 290.2 -47.9 Q 291.7 -49.9 292.2 -53.3 L 292.2 -53.3 L 295.6 -72.1 L 295.6 -72.1 Q 294.3 -73.2 292.7 -73.2 L 292.7 -73.2 L 292.7 -73.2 Q 291.2 -73.2 290.2 -72.7 L 290.2 -72.7 L 290.2 -72.7 Q 289.3 -72.2 288.6 -71 Z M 327.8 -46.7 L 327.8 -46.7 L 327.8 -46.7 Q 325.8 -41.9 319.4 -41.9 L 319.4 -41.9 L 319.4 -41.9 Q 316.2 -41.9 314.2 -44.1 L 314.2 -44.1 L 314.2 -44.1 Q 312.5 -46 312.5 -48.1 L 312.5 -48.1 L 312.5 -48.1 Q 312.5 -52.9 314.8 -63.4 L 314.8 -63.4 L 319.4 -87.9 L 332.4 -89.2 L 326.2 -56.8 L 326.2 -56.8 Q 325.1 -52.1 325.1 -50.4 L 325.1 -50.4 L 325.1 -50.4 Q 325.1 -46.8 327.8 -46.7 Z M 348.5 -46.7 L 348.5 -46.7 L 348.5 -46.7 Q 346.5 -41.9 340.2 -41.9 L 340.2 -41.9 L 340.2 -41.9 Q 337 -41.9 334.9 -44.1 L 334.9 -44.1 L 334.9 -44.1 Q 333.3 -46 333.3 -48.1 L 333.3 -48.1 L 333.3 -48.1 Q 333.3 -52.9 335.5 -63.4 L 335.5 -63.4 L 340.2 -87.9 L 353.2 -89.2 L 347 -56.8 L 347 -56.8 Q 345.9 -52.1 345.9 -50.4 L 345.9 -50.4 L 345.9 -50.4 Q 345.9 -46.8 348.5 -46.7 Z M 379.9 -54 L 379.9 -54 L 379.9 -54 Q 381.5 -52.9 381.5 -50.5 L 381.5 -50.5 L 381.5 -50.5 Q 381.5 -48.1 380.2 -46.5 L 380.2 -46.5 L 380.2 -46.5 Q 379 -45 377 -44 L 377 -44 L 377 -44 Q 373 -41.9 368.5 -41.9 L 368.5 -41.9 L 368.5 -41.9 Q 364.1 -41.9 361.5 -42.8 L 361.5 -42.8 L 361.5 -42.8 Q 358.9 -43.8 357.2 -45.6 L 357.2 -45.6 L 357.2 -45.6 Q 353.8 -49 353.8 -55.2 L 353.8 -55.2 L 353.8 -55.2 Q 353.8 -64.8 359.1 -70.7 L 359.1 -70.7 L 359.1 -70.7 Q 364.7 -77.1 374.5 -77.1 L 374.5 -77.1 L 374.5 -77.1 Q 380.6 -77.1 383.6 -74.5 L 383.6 -74.5 L 383.6 -74.5 Q 385.8 -72.6 385.8 -69.4 L 385.8 -69.4 L 385.8 -69.4 Q 385.8 -58.2 366.4 -58.2 L 366.4 -58.2 L 366.4 -58.2 Q 366.1 -56.5 366.1 -55.1 L 366.1 -55.1 L 366.1 -55.1 Q 366.1 -52.2 367.4 -51 L 367.4 -51 L 367.4 -51 Q 368.7 -49.9 371.2 -49.9 L 371.2 -49.9 L 371.2 -49.9 Q 373.6 -49.9 376.2 -51 L 376.2 -51 L 376.2 -51 Q 378.8 -52.2 379.9 -54 Z M 366.8 -60.9 L 366.8 -60.9 L 366.8 -60.9 Q 371.4 -60.9 374 -63.8 L 374 -63.8 L 374 -63.8 Q 376.6 -66.4 376.6 -70.7 L 376.6 -70.7 L 376.6 -70.7 Q 376.6 -72.2 376.1 -73 L 376.1 -73 L 376.1 -73 Q 375.5 -73.8 374.4 -73.8 L 374.4 -73.8 L 374.4 -73.8 Q 373.3 -73.8 372.4 -73.4 L 372.4 -73.4 L 372.4 -73.4 Q 371.5 -73 370.5 -71.6 L 370.5 -71.6 L 370.5 -71.6 Q 368.2 -68.4 366.8 -60.9 Z M 408 -61.1 L 408 -61.1 L 408 -61.1 Q 410.3 -65.2 410.3 -69.4 L 410.3 -69.4 L 410.3 -69.4 Q 410.3 -72.1 408.3 -72.1 L 408.3 -72.1 L 408.3 -72.1 Q 406.8 -72.1 405.2 -69.5 L 405.2 -69.5 L 405.2 -69.5 Q 403.5 -66.9 403 -63.5 L 403 -63.5 L 399.7 -43.1 L 386.5 -41.9 L 393 -75.8 L 403.5 -77.1 L 402.4 -70.6 L 402.4 -70.6 Q 405.5 -77.1 412.6 -77.1 L 412.6 -77.1 L 412.6 -77.1 Q 416.3 -77.1 418.3 -75.1 L 418.3 -75.1 L 418.3 -75.1 Q 420.3 -73.2 420.3 -69.3 L 420.3 -69.3 L 420.3 -69.3 Q 420.3 -65.4 417.7 -62.9 L 417.7 -62.9 L 417.7 -62.9 Q 415.1 -60.4 410.7 -60.4 L 410.7 -60.4 L 410.7 -60.4 Q 408.8 -60.4 408 -61.1 Z M 441.7 -50.4 L 441.7 -50.4 L 441.7 -50.4 Q 438.4 -46.9 432.3 -46.9 L 432.3 -46.9 L 432.3 -46.9 Q 424.7 -46.9 423.1 -52.5 L 423.1 -52.5 L 423.1 -52.5 Q 422.6 -54.2 422.6 -56 L 422.6 -56 L 422.6 -56 Q 422.6 -57.9 422.9 -59.8 L 422.9 -59.8 L 425.9 -75.8 L 438.9 -77.1 L 435.4 -58.4 L 435.4 -58.4 Q 435.3 -57.6 435.1 -56.7 L 435.1 -56.7 L 435.1 -56.7 Q 434.9 -55.8 434.9 -54.9 L 434.9 -54.9 L 434.9 -54.9 Q 434.9 -54 435.2 -53.4 L 435.2 -53.4 L 435.2 -53.4 Q 435.5 -52.7 436 -52.4 L 436 -52.4 L 436 -52.4 Q 436.8 -51.8 438.1 -51.8 L 438.1 -51.8 L 438.1 -51.8 Q 439.5 -51.8 440.7 -53.5 L 440.7 -53.5 L 440.7 -53.5 Q 441.9 -55.2 442.5 -58.1 L 442.5 -58.1 L 446 -75.8 L 458.6 -77.1 L 453.8 -51.9 L 453.8 -51.9 Q 451.4 -39.6 446.6 -34.8 L 446.6 -34.8 L 446.6 -34.8 Q 444.1 -32.3 440.8 -31.3 L 440.8 -31.3 L 440.8 -31.3 Q 437.6 -30.3 433.4 -30.3 L 433.4 -30.3 L 433.4 -30.3 Q 426.7 -30.3 422.9 -32.4 L 422.9 -32.4 L 422.9 -32.4 Q 419 -34.5 419 -38 L 419 -38 L 419 -38 Q 419 -40.6 421 -42.2 L 421 -42.2 L 421 -42.2 Q 423 -43.7 426.1 -43.7 L 426.1 -43.7 L 426.1 -43.7 Q 428.8 -43.7 430.8 -42.5 L 430.8 -42.5 L 430.8 -42.5 Q 432 -41.8 432.6 -40.9 L 432.6 -40.9 L 432.6 -40.9 Q 431.1 -39.6 431.1 -37.5 L 431.1 -37.5 L 431.1 -37.5 Q 431.1 -34.7 433.7 -34.7 L 433.7 -34.7 L 433.7 -34.7 Q 437.9 -34.7 440.3 -44.4 L 440.3 -44.4 L 440.3 -44.4 Q 441 -47.3 441.7 -50.4 Z" fill="url(#editing-gradow-gradient)"></path></g></g><style>text {
  font-size: 64px;
  font-family: Arial Black;
  dominant-baseline: central;
  text-anchor: middle;
}</style></svg>